<?xml version="1.0" encoding="UTF-8"?>
<svg version="1.1" xmlns="http://www.w3.org/2000/svg" width="1024" height="1024">
<path d="M0 0 C1.19436676 -0.00100708 2.38873352 -0.00201416 3.61929321 -0.00305176 C22.96037535 0.00794604 41.87553105 0.78249028 61.0625 3.25 C62.18301758 3.38390137 63.30353516 3.51780273 64.45800781 3.65576172 C151.95543099 14.23702442 234.7528546 51.69847331 302.0625 108.25 C302.63661621 108.72856445 303.21073242 109.20712891 303.80224609 109.70019531 C305.68609791 111.27294781 307.56265736 112.85402298 309.4375 114.4375 C310.31281372 115.16851929 310.31281372 115.16851929 311.20581055 115.91430664 C311.76437744 116.38989014 312.32294434 116.86547363 312.8984375 117.35546875 C313.63392822 117.97651489 313.63392822 117.97651489 314.38427734 118.61010742 C316.81847485 120.98870862 318.89417335 123.62684775 321.0625 126.25 C303.28417531 144.14498569 285.49165571 162.025748 267.68200302 179.88955784 C259.41351016 188.18386212 251.1497742 196.48280496 242.89697266 204.79272461 C235.70610249 212.0333395 228.50656661 219.265203 221.29636884 226.48657364 C217.4768448 230.31263149 213.66188532 234.14300876 209.85726166 237.98388863 C206.27953238 241.59543592 202.69037432 245.19520721 199.09192848 248.78610992 C197.77013614 250.10928316 196.45265588 251.43677953 195.13975334 252.76877403 C193.35262476 254.58061741 191.55092288 256.37655989 189.74456787 258.16920471 C189.22315932 258.70517747 188.70175077 259.24115023 188.16454196 259.79336458 C186.69427109 261.23346806 186.69427109 261.23346806 184.0625 263.25 C180.01039076 263.13699627 177.94921077 260.53478437 175.125 257.8125 C125.30831749 211.06042327 55.84198288 190.48686745 -11.48510742 192.39038086 C-48.54042737 193.8934831 -85.62648292 202.84245563 -118.9375 219.25 C-119.81293457 219.67619629 -120.68836914 220.10239258 -121.59033203 220.54150391 C-139.59341785 229.3793824 -156.20277772 239.81935167 -171.9375 252.25 C-173.16232853 253.1919681 -174.38756725 254.13340314 -175.61328125 255.07421875 C-237.28722957 303.25041661 -272.79364523 376.16927833 -282.25439453 452.81738281 C-290.037912 525.97409259 -266.59829568 602.28809039 -220.95141602 659.66503906 C-215.55452326 666.32493175 -209.90247272 672.69421211 -203.984375 678.89453125 C-201.9375 681.25 -201.9375 681.25 -200.9375 684.25 C-200.09832031 684.65412109 -200.09832031 684.65412109 -199.2421875 685.06640625 C-195.89551348 686.78512189 -193.62299451 689.49173262 -191.0625 692.1875 C-184.50876742 698.91054825 -177.45938904 704.65336987 -169.9375 710.25 C-169.01324219 710.94609375 -168.08898437 711.6421875 -167.13671875 712.359375 C-164.43046549 714.36400704 -161.69512804 716.31666295 -158.9375 718.25 C-158.40640625 718.62447266 -157.8753125 718.99894531 -157.328125 719.38476562 C-95.04748258 763.02406897 -17.51816113 776.24521513 56.7265625 763.4375 C104.56309691 754.66722178 150.6378929 735.67986457 186.72265625 702.40234375 C189.02680584 700.28283386 191.38245434 698.23564658 193.75 696.1875 C197.90676661 692.48936088 201.51684669 688.52950312 205.0625 684.25 C205.72636719 683.47398437 206.39023437 682.69796875 207.07421875 681.8984375 C231.42289238 652.95979846 247.84786395 618.72077643 255.3359375 581.64453125 C256.0625 578.25 256.0625 578.25 257.0625 576.25 C171.9225 576.25 86.7825 576.25 -0.9375 576.25 C-0.9375 515.53 -0.9375 454.81 -0.9375 392.25 C148.5525 392.25 298.0425 392.25 452.0625 392.25 C458.74057527 437.66091181 458.74057527 437.66091181 459.55859375 451.65234375 C459.60495468 452.44237289 459.65131561 453.23240204 459.69908142 454.04637146 C461.51004219 488.33588117 461.24158001 523.14149525 457.0625 557.25 C456.97764343 557.96041443 456.89278687 558.67082886 456.80535889 559.402771 C452.9832725 591.33631607 446.61081171 622.51752374 437.0625 653.25 C436.73636719 654.30010254 436.41023437 655.35020508 436.07421875 656.43212891 C418.37074789 712.74291993 389.83235409 765.65847453 351.0625 810.25 C350.46179688 810.95125 349.86109375 811.6525 349.2421875 812.375 C337.12042268 826.42922008 324.31553402 840.32831727 310.0625 852.25 C309.10085938 853.07757812 308.13921875 853.90515625 307.1484375 854.7578125 C287.5187019 871.62338521 266.48193605 886.33390613 244.0625 899.25 C243.3288623 899.67732422 242.59522461 900.10464844 241.83935547 900.54492188 C187.1896186 932.28261731 125.8028319 950.07779317 63.3125 957.5 C62.61424103 957.58326538 61.91598206 957.66653076 61.19656372 957.75231934 C41.12702471 960.11375584 21.19391522 960.53548988 1 960.5625 C0.30190468 960.5635033 -0.39619064 960.56450661 -1.11544037 960.56554031 C-86.42879213 960.64054838 -168.47646775 938.66168295 -294.93359375 860.70703125 C-297.05069965 858.97535426 -299.17247044 857.29118011 -301.34765625 855.63671875 C-309.11392493 849.71073682 -316.30171417 843.35427153 -323.3671875 836.609375 C-325.78388258 834.30688604 -328.25417854 832.09399804 -330.78515625 829.91796875 C-335.57020192 825.76223048 -340.03096436 821.30293565 -344.5 816.8125 C-345.31146484 816.00490234 -346.12292969 815.19730469 -346.95898438 814.36523438 C-351.82636572 809.48999608 -356.47443504 804.49689822 -360.9375 799.25 C-361.3924585 798.72204834 -361.84741699 798.19409668 -362.31616211 797.65014648 C-378.53481068 778.80875111 -393.48791092 759.1851988 -406.74560547 738.13867188 C-407.80096056 736.46635991 -408.8701734 734.80281087 -409.94140625 733.140625 C-445.32505798 677.29502853 -467.95224338 612.88220538 -477.125 547.5625 C-477.2799292 546.4605127 -477.4348584 545.35852539 -477.59448242 544.22314453 C-478.08217414 540.56957161 -478.52124387 536.912225 -478.9375 533.25 C-479.06990585 532.12037338 -479.06990585 532.12037338 -479.20498657 530.96792603 C-481.03637254 514.93592795 -481.30023894 498.97435324 -481.25555801 482.84915161 C-481.24992055 480.78338544 -481.24709826 478.71762746 -481.24447632 476.65185547 C-481.20827641 457.03815274 -480.86983266 437.68166675 -477.9375 418.25 C-477.76057617 417.02732422 -477.58365234 415.80464844 -477.40136719 414.54492188 C-468.79262055 356.05302328 -451.0098028 297.63272564 -421.14501953 246.32958984 C-419.96497651 244.29732004 -418.80697986 242.2538185 -417.65234375 240.20703125 C-407.43629714 222.27454024 -395.77984433 205.10353685 -383.13623047 188.79833984 C-382.10265155 187.46331795 -381.0831559 186.1174144 -380.06640625 184.76953125 C-364.00486513 163.62376129 -345.32894764 142.45268642 -325.1484375 125.18359375 C-322.97649084 123.28409976 -320.86891045 121.32489766 -318.76416016 119.3515625 C-312.70399155 113.69201774 -306.34630863 108.55797325 -299.70654297 103.59082031 C-297.87990742 102.20634855 -296.08106415 100.79125128 -294.28515625 99.3671875 C-228.78191571 47.72863488 -148.52860421 14.88308641 -41.9375 1.25 C-40.22929077 1.10860596 -40.22929077 1.10860596 -38.48657227 0.96435547 C-25.67095776 0.02820016 -12.84475346 0.00753611 0 0 Z " fill="#34A853" transform="translate(512.9375,31.75)"/>
<path d="M0 0 C1.19436676 -0.00100708 2.38873352 -0.00201416 3.61929321 -0.00305176 C22.96037535 0.00794604 41.87553105 0.78249028 61.0625 3.25 C62.18301758 3.38390137 63.30353516 3.51780273 64.45800781 3.65576172 C151.95543099 14.23702442 234.7528546 51.69847331 302.0625 108.25 C302.63661621 108.72856445 303.21073242 109.20712891 303.80224609 109.70019531 C305.68609791 111.27294781 307.56265736 112.85402298 309.4375 114.4375 C310.31281372 115.16851929 310.31281372 115.16851929 311.20581055 115.91430664 C311.76437744 116.38989014 312.32294434 116.86547363 312.8984375 117.35546875 C313.63392822 117.97651489 313.63392822 117.97651489 314.38427734 118.61010742 C316.81847485 120.98870862 318.89417335 123.62684775 321.0625 126.25 C303.28417531 144.14498569 285.49165571 162.025748 267.68200302 179.88955784 C259.41351016 188.18386212 251.1497742 196.48280496 242.89697266 204.79272461 C235.70610249 212.0333395 228.50656661 219.265203 221.29636884 226.48657364 C217.4768448 230.31263149 213.66188532 234.14300876 209.85726166 237.98388863 C206.27953238 241.59543592 202.69037432 245.19520721 199.09192848 248.78610992 C197.77013614 250.10928316 196.45265588 251.43677953 195.13975334 252.76877403 C193.35262476 254.58061741 191.55092288 256.37655989 189.74456787 258.16920471 C189.22315932 258.70517747 188.70175077 259.24115023 188.16454196 259.79336458 C186.69427109 261.23346806 186.69427109 261.23346806 184.0625 263.25 C180.01039076 263.13699627 177.94921077 260.53478437 175.125 257.8125 C125.30831749 211.06042327 55.84198288 190.48686745 -11.48510742 192.39038086 C-48.54042737 193.8934831 -85.62648292 202.84245563 -118.9375 219.25 C-119.81293457 219.67619629 -120.68836914 220.10239258 -121.59033203 220.54150391 C-139.59341785 229.3793824 -156.20277772 239.81935167 -171.9375 252.25 C-173.16232853 253.1919681 -174.38756725 254.13340314 -175.61328125 255.07421875 C-237.28722957 303.25041661 -272.79364523 376.16927833 -282.25439453 452.81738281 C-286.5275323 492.98029131 -280.30414178 532.77442054 -268.9375 571.25 C-277.51242877 578.31975511 -286.15643841 585.24521291 -295.07861328 591.87255859 C-300.54697802 595.93877853 -305.91179612 600.12257879 -311.2578125 604.34765625 C-315.38379263 607.60814846 -319.53487822 610.83604735 -323.6875 614.0625 C-324.44530762 614.65144043 -325.20311523 615.24038086 -325.98388672 615.84716797 C-327.53019608 617.04876492 -329.07658324 618.25026177 -330.62304688 619.45166016 C-334.39565636 622.38299364 -338.16648151 625.31662028 -341.9375 628.25 C-342.67605225 628.82435791 -343.41460449 629.39871582 -344.17553711 629.99047852 C-347.98896465 632.95610866 -351.80169963 635.92262266 -355.61328125 638.890625 C-363.24209492 644.82983564 -370.88256643 650.75235967 -378.55078125 656.640625 C-382.58702228 659.7456121 -386.60600933 662.87273629 -390.625 666 C-391.38248535 666.58934326 -392.1399707 667.17868652 -392.92041016 667.78588867 C-396.83830738 670.83511372 -400.75417527 673.88691578 -404.66796875 676.94140625 C-413.02952733 683.46277626 -421.4181142 689.9356317 -429.9375 696.25 C-460.89321499 665.29428501 -471.42974612 588.11871673 -477.125 547.5625 C-477.2799292 546.4605127 -477.4348584 545.35852539 -477.59448242 544.22314453 C-478.08217414 540.56957161 -478.52124387 536.912225 -478.9375 533.25 C-479.06990585 532.12037338 -479.06990585 532.12037338 -479.20498657 530.96792603 C-481.03637254 514.93592795 -481.30023894 498.97435324 -481.25555801 482.84915161 C-481.24992055 480.78338544 -481.24709826 478.71762746 -481.24447632 476.65185547 C-481.20827641 457.03815274 -480.86983266 437.68166675 -477.9375 418.25 C-477.76057617 417.02732422 -477.58365234 415.80464844 -477.40136719 414.54492188 C-468.79262055 356.05302328 -451.0098028 297.63272564 -421.14501953 246.32958984 C-419.96497651 244.29732004 -418.80697986 242.2538185 -417.65234375 240.20703125 C-407.43629714 222.27454024 -395.77984433 205.10353685 -383.13623047 188.79833984 C-382.10265155 187.46331795 -381.0831559 186.1174144 -380.06640625 184.76953125 C-364.00486513 163.62376129 -345.32894764 142.45268642 -325.1484375 125.18359375 C-322.97649084 123.28409976 -320.86891045 121.32489766 -318.76416016 119.3515625 C-312.70399155 113.69201774 -306.34630863 108.55797325 -299.70654297 103.59082031 C-297.87990742 102.20634855 -296.08106415 100.79125128 -294.28515625 99.3671875 C-228.78191571 47.72863488 -148.52860421 14.88308641 -41.9375 1.25 C-40.22929077 1.10860596 -40.22929077 1.10860596 -38.48657227 0.96435547 C-25.67095776 0.02820016 -12.84475346 0.00753611 0 0 Z " fill="#EA4335" transform="translate(512.9375,31.75)"/>
<path d="M0 0 C149.49 0 298.98 0 453 0 C459.67807527 45.41091181 459.67807527 45.41091181 460.49609375 59.40234375 C460.54245468 60.19237289 460.58881561 60.98240204 460.63658142 61.79637146 C462.44754219 96.08588117 462.17908001 130.89149525 458 165 C457.87271515 166.06562164 457.87271515 166.06562164 457.74285889 167.152771 C453.9207725 199.08631607 447.54831171 230.26752374 438 261 C437.67386719 262.05010254 437.34773438 263.10020508 437.01171875 264.18212891 C419.30824789 320.49291993 390.76985409 373.40847453 352 418 C351.39929688 418.70125 350.79859375 419.4025 350.1796875 420.125 C340.29754566 431.58255576 329.76520763 442.37811614 319 453 C318.51023682 452.63213379 318.02047363 452.26426758 317.51586914 451.88525391 C314.09805493 449.3197492 310.67771567 446.75795137 307.24609375 444.2109375 C299.86516667 438.72159514 292.59010736 433.12936985 285.42871094 427.35644531 C280.51097729 423.39486587 275.52735711 419.53261516 270.51171875 415.6953125 C266.3225474 412.48746518 262.16233945 409.24253579 258 406 C252.84451434 401.98523191 247.68315684 397.97898909 242.5 394 C235.08386871 388.30530446 227.70801416 382.55912408 220.33056641 376.81445312 C216.55482736 373.87486664 212.77736693 370.93749416 209 368 C204.44050616 364.45427972 199.8814516 360.90800104 195.32421875 357.359375 C193.77868675 356.15619744 192.23311428 354.95307186 190.6875 353.75 C189.56746582 352.87807007 189.56746582 352.87807007 188.42480469 351.98852539 C182.90267361 347.69319564 177.35814417 343.42810739 171.796875 339.18359375 C168.80781397 336.84995532 165.90101432 334.4418301 163 332 C164.08918005 328.73245986 164.57207075 328.30911917 167.24609375 326.3984375 C167.91374756 325.9127832 168.58140137 325.42712891 169.26928711 324.92675781 C170.34255249 324.1586377 170.34255249 324.1586377 171.4375 323.375 C177.9841566 318.58296043 184.0615035 313.53359901 190 308 C191.56053766 306.6435724 193.12300963 305.28936667 194.6875 303.9375 C198.84426661 300.23936088 202.45434669 296.27950312 206 292 C206.66386719 291.22398437 207.32773437 290.44796875 208.01171875 289.6484375 C232.36039238 260.70979846 248.78536395 226.47077643 256.2734375 189.39453125 C257 186 257 186 258 184 C172.86 184 87.72 184 0 184 C0 123.28 0 62.56 0 0 Z " fill="#4185F3" transform="translate(512,424)"/>
<path d="M0 0 C5.08056695 3.26895433 9.81396591 6.89400893 14.5625 10.625 C16.17816701 11.88830021 17.79405347 13.15131981 19.41015625 14.4140625 C20.19664551 15.02926758 20.98313477 15.64447266 21.79345703 16.27832031 C24.68429871 18.53393168 27.5903717 20.76866722 30.5 23 C39.4852752 29.89960906 48.41442988 36.87151119 57.35253906 43.83203125 C68.40698713 52.44092749 68.40698713 52.44092749 79.5 61 C88.4852752 67.89960906 97.41442988 74.87151119 106.35253906 81.83203125 C114.7434785 88.36570147 123.14283312 94.88694675 131.578125 101.36328125 C138.00066463 106.30384498 144.38628718 111.29233033 150.77929688 116.27099609 C154.51835948 119.18217039 158.25920973 122.09104625 162 125 C161.8141333 125.65145996 161.6282666 126.30291992 161.43676758 126.97412109 C156.75763462 143.5075382 152.7530875 160.03210743 150 177 C149.86722656 177.81436523 149.73445312 178.62873047 149.59765625 179.46777344 C143.07284006 222.15400068 149.8954179 266.02652518 162 307 C153.42507123 314.06975511 144.78106159 320.99521291 135.85888672 327.62255859 C130.39052198 331.68877853 125.02570388 335.87257879 119.6796875 340.09765625 C115.55370737 343.35814846 111.40262178 346.58604735 107.25 349.8125 C106.49219238 350.40144043 105.73438477 350.99038086 104.95361328 351.59716797 C103.40730392 352.79876492 101.86091676 354.00026177 100.31445312 355.20166016 C96.54184364 358.13299364 92.77101849 361.06662028 89 364 C88.26144775 364.57435791 87.52289551 365.14871582 86.76196289 365.74047852 C82.94853535 368.70610866 79.13580037 371.67262266 75.32421875 374.640625 C67.69540508 380.57983564 60.05493357 386.50235967 52.38671875 392.390625 C48.35047772 395.4956121 44.33149067 398.62273629 40.3125 401.75 C39.17627197 402.63401489 39.17627197 402.63401489 38.01708984 403.53588867 C34.09919262 406.58511372 30.18332473 409.63691578 26.26953125 412.69140625 C17.90797267 419.21277626 9.5193858 425.6856317 1 432 C-29.95571499 401.04428501 -40.49224612 323.86871673 -46.1875 283.3125 C-46.3424292 282.2105127 -46.4973584 281.10852539 -46.65698242 279.97314453 C-47.14467414 276.31957161 -47.58374387 272.662225 -48 269 C-48.13240585 267.87037338 -48.13240585 267.87037338 -48.26748657 266.71792603 C-50.09887254 250.68592795 -50.36273894 234.72435324 -50.31805801 218.59915161 C-50.31242055 216.53338544 -50.30959826 214.46762746 -50.30697632 212.40185547 C-50.27077641 192.78815274 -49.93233266 173.43166675 -47 154 C-46.82307617 152.77732422 -46.64615234 151.55464844 -46.46386719 150.29492188 C-38.67985787 97.40667896 -22.4084072 48.36181 0 0 Z " fill="#FABB05" transform="translate(82,296)"/>
</svg>
